<mxfile host="app.diagrams.net" agent="Mozilla/5.0 (X11; Ubuntu; Linux x86_64; rv:129.0) Gecko/20100101 Firefox/129.0" version="26.0.10">
  <diagram name="Page-1" id="egtqB6_A-rVfAl6xzuDo">
    <mxGraphModel dx="541" dy="790" grid="1" gridSize="10" guides="1" tooltips="1" connect="1" arrows="1" fold="1" page="1" pageScale="1" pageWidth="827" pageHeight="1169" math="0" shadow="0">
      <root>
        <mxCell id="0" />
        <mxCell id="1" parent="0" />
        <mxCell id="N2zcTXtOys0kNxSALDwQ-1" value="" style="whiteSpace=wrap;html=1;aspect=fixed;" parent="1" vertex="1">
          <mxGeometry x="1550" y="305" width="825" height="825" as="geometry" />
        </mxCell>
        <mxCell id="N2zcTXtOys0kNxSALDwQ-2" value="&lt;font style=&quot;font-size: 19px;&quot;&gt;Kubernetes cluster&lt;br&gt;&lt;/font&gt;" style="text;html=1;align=center;verticalAlign=middle;resizable=0;points=[];autosize=1;strokeColor=none;fillColor=none;strokeWidth=3;" parent="1" vertex="1">
          <mxGeometry x="1545" y="240" width="180" height="40" as="geometry" />
        </mxCell>
        <mxCell id="N2zcTXtOys0kNxSALDwQ-3" value="&lt;font style=&quot;font-size: 18px;&quot;&gt;Node : 8 Nodes&lt;br&gt;&lt;/font&gt;" style="text;html=1;align=center;verticalAlign=middle;resizable=0;points=[];autosize=1;strokeColor=none;fillColor=none;strokeWidth=3;" parent="1" vertex="1">
          <mxGeometry x="1550" y="305" width="150" height="40" as="geometry" />
        </mxCell>
        <mxCell id="N2zcTXtOys0kNxSALDwQ-4" value="" style="whiteSpace=wrap;html=1;aspect=fixed;" parent="1" vertex="1">
          <mxGeometry x="1610" y="350" width="700" height="700" as="geometry" />
        </mxCell>
        <mxCell id="N2zcTXtOys0kNxSALDwQ-5" value="&lt;font style=&quot;font-size: 18px;&quot;&gt;Namespace; rbachelier&lt;/font&gt;" style="text;html=1;align=center;verticalAlign=middle;resizable=0;points=[];autosize=1;strokeColor=none;fillColor=none;strokeWidth=3;" parent="1" vertex="1">
          <mxGeometry x="1610" y="350" width="210" height="40" as="geometry" />
        </mxCell>
        <mxCell id="N2zcTXtOys0kNxSALDwQ-6" value="" style="whiteSpace=wrap;html=1;aspect=fixed;" parent="1" vertex="1">
          <mxGeometry x="1630" y="390" width="430" height="430" as="geometry" />
        </mxCell>
        <mxCell id="N2zcTXtOys0kNxSALDwQ-7" value="" style="whiteSpace=wrap;html=1;aspect=fixed;" parent="1" vertex="1">
          <mxGeometry x="1671" y="431" width="348" height="348" as="geometry" />
        </mxCell>
        <mxCell id="N2zcTXtOys0kNxSALDwQ-8" value="Deployment: Deployment webnodb&lt;span style=&quot;white-space: pre;&quot;&gt;&#x9;&lt;/span&gt; " style="text;html=1;align=center;verticalAlign=middle;resizable=0;points=[];autosize=1;strokeColor=none;fillColor=none;strokeWidth=3;" parent="1" vertex="1">
          <mxGeometry x="1671" y="431" width="240" height="30" as="geometry" />
        </mxCell>
        <mxCell id="N2zcTXtOys0kNxSALDwQ-10" value="&lt;div&gt;Pods Webnodb&lt;/div&gt;&lt;div&gt;Port 5000 expose&lt;br&gt;&lt;/div&gt;" style="whiteSpace=wrap;html=1;aspect=fixed;" parent="1" vertex="1">
          <mxGeometry x="1820" y="542.5" width="90" height="90" as="geometry" />
        </mxCell>
        <UserObject label="10.42.2.30" link="10.152.0.6" id="N2zcTXtOys0kNxSALDwQ-13">
          <mxCell style="text;whiteSpace=wrap;" parent="1" vertex="1">
            <mxGeometry x="1827.5" y="510" width="75" height="20" as="geometry" />
          </mxCell>
        </UserObject>
        <mxCell id="N2zcTXtOys0kNxSALDwQ-15" value="Replicaset : 3" style="text;html=1;align=center;verticalAlign=middle;resizable=0;points=[];autosize=1;strokeColor=none;fillColor=none;strokeWidth=3;" parent="1" vertex="1">
          <mxGeometry x="1630" y="390" width="100" height="30" as="geometry" />
        </mxCell>
        <mxCell id="N2zcTXtOys0kNxSALDwQ-30" value="&lt;div&gt;Service ClusterIp&lt;br&gt;&lt;/div&gt;&lt;div&gt;webnodb-service&lt;br&gt;&lt;/div&gt;&lt;div&gt;ip : 10.43.253.154&lt;br&gt;&lt;/div&gt;" style="whiteSpace=wrap;html=1;aspect=fixed;" parent="1" vertex="1">
          <mxGeometry x="2100" y="520" width="155" height="155" as="geometry" />
        </mxCell>
        <mxCell id="N2zcTXtOys0kNxSALDwQ-34" style="edgeStyle=orthogonalEdgeStyle;rounded=0;orthogonalLoop=1;jettySize=auto;html=1;" parent="1" source="N2zcTXtOys0kNxSALDwQ-33" edge="1">
          <mxGeometry relative="1" as="geometry">
            <mxPoint x="1970" y="265" as="targetPoint" />
          </mxGeometry>
        </mxCell>
        <mxCell id="N2zcTXtOys0kNxSALDwQ-33" value="Request" style="text;html=1;strokeColor=none;fillColor=none;align=center;verticalAlign=middle;whiteSpace=wrap;rounded=0;" parent="1" vertex="1">
          <mxGeometry x="1850" y="250" width="60" height="30" as="geometry" />
        </mxCell>
        <mxCell id="N2zcTXtOys0kNxSALDwQ-36" style="edgeStyle=orthogonalEdgeStyle;rounded=0;orthogonalLoop=1;jettySize=auto;html=1;" parent="1" source="N2zcTXtOys0kNxSALDwQ-35" edge="1">
          <mxGeometry relative="1" as="geometry">
            <mxPoint x="2060" y="265" as="targetPoint" />
          </mxGeometry>
        </mxCell>
        <mxCell id="N2zcTXtOys0kNxSALDwQ-35" value="NAT" style="text;html=1;align=center;verticalAlign=middle;resizable=0;points=[];autosize=1;strokeColor=none;fillColor=none;" parent="1" vertex="1">
          <mxGeometry x="1969" y="250" width="50" height="30" as="geometry" />
        </mxCell>
        <mxCell id="N2zcTXtOys0kNxSALDwQ-38" style="edgeStyle=orthogonalEdgeStyle;rounded=0;orthogonalLoop=1;jettySize=auto;html=1;" parent="1" source="N2zcTXtOys0kNxSALDwQ-37" edge="1">
          <mxGeometry relative="1" as="geometry">
            <mxPoint x="2230" y="265" as="targetPoint" />
          </mxGeometry>
        </mxCell>
        <mxCell id="N2zcTXtOys0kNxSALDwQ-37" value="webnodb-service" style="text;html=1;align=center;verticalAlign=middle;resizable=0;points=[];autosize=1;strokeColor=none;fillColor=none;" parent="1" vertex="1">
          <mxGeometry x="2060" y="250" width="110" height="30" as="geometry" />
        </mxCell>
        <mxCell id="N2zcTXtOys0kNxSALDwQ-39" value="Pods webnodb" style="text;html=1;align=center;verticalAlign=middle;resizable=0;points=[];autosize=1;strokeColor=none;fillColor=none;" parent="1" vertex="1">
          <mxGeometry x="2230" y="250" width="100" height="30" as="geometry" />
        </mxCell>
      </root>
    </mxGraphModel>
  </diagram>
</mxfile>
